<svg xmlns="http://www.w3.org/2000/svg" xmlns:xlink="http://www.w3.org/1999/xlink" viewBox="0 0 1107.16 490.62"><defs><style>.cls-1,.cls-4,.cls-6{fill:#4374b9;}.cls-1{clip-rule:evenodd;}.cls-2{isolation:isolate;}.cls-3,.cls-9{fill:#19314e;}.cls-3,.cls-4{fill-rule:evenodd;}.cls-5{clip-path:url(#clip-path);}.cls-7{clip-path:url(#clip-path-2);}.cls-8{clip-path:url(#clip-path-3);}.cls-10{fill:#b3a281;opacity:0.4;mix-blend-mode:multiply;}</style><clipPath id="clip-path"><polygon class="cls-1" points="351 303.88 553.58 178.91 756.16 303.88 553.58 148.84 351 303.88"/></clipPath><clipPath id="clip-path-2"><path class="cls-1" d="M1020.82,161.67H981.58V174.9l8.32.21q0,11.19.08,22.38l26.65,20.21V181l-8.18-5.84h12.37Z"/></clipPath><clipPath id="clip-path-3"><path class="cls-1" d="M86.16,161.67h39.23V174.9l-8.31.21L117,197.49,90.35,217.7V181l8.17-5.84H86.16Z"/></clipPath></defs><g class="cls-2"><g id="Layer_2" data-name="Layer 2"><g id="Layer_1-2" data-name="Layer 1"><polygon class="cls-3" points="388.8 217.42 422.5 191.4 383.68 160.04 379.68 145.2 359.53 142.77 260.43 118.04 388.8 217.42"/><polygon class="cls-3" points="718.36 217.42 684.67 191.4 723.48 160.04 728.23 146.22 747.64 142.77 846.74 118.04 718.36 217.42"/><path class="cls-4" d="M207.83,246.06h20.32v20.32H207.83Zm23.61,0h20.32v20.32H231.44Zm0-23.61h20.32v20.32H231.44Zm-23.61,0h20.32v20.32H207.83Z"/><polygon class="cls-4" points="351 303.88 553.58 178.91 756.16 303.88 553.58 148.84 351 303.88"/><g class="cls-5"><rect class="cls-6" x="351" y="148.85" width="405.16" height="155.03"/></g><polygon class="cls-4" points="427.44 137.22 553.58 63.01 679.72 137.22 553.58 46.59 427.44 137.22"/><polygon class="cls-4" points="140.76 218.55 231.85 160.26 322.94 218.55 231.85 144.45 140.76 218.55"/><polygon class="cls-4" points="966.4 218.55 875.31 160.26 784.22 218.55 875.31 144.45 966.4 218.55"/><path class="cls-4" d="M1020.82,161.67H981.58V174.9l8.32.21q0,11.19.08,22.38l26.65,20.21V181l-8.18-5.84h12.37Z"/><g class="cls-7"><rect class="cls-6" x="981.13" y="161.36" width="40.14" height="56.65" transform="translate(-2.93 16.15) rotate(-0.92)"/></g><path class="cls-4" d="M86.16,161.67h39.23V174.9l-8.31.21L117,197.49,90.35,217.7V181l8.17-5.84H86.16Z"/><g class="cls-8"><rect class="cls-6" x="77.45" y="169.62" width="56.65" height="40.14" transform="translate(-85.59 292.39) rotate(-89.08)"/></g><path class="cls-4" d="M899.33,246.06H879v20.32h20.32Zm-23.61,0H855.4v20.32h20.32Zm0-23.61H855.4v20.32h20.32Zm23.61,0H879v20.32h20.32Z"/><polygon class="cls-3" points="553.58 102.25 839.97 319.87 790.02 319.87 553.58 138.72 317.14 319.87 267.19 319.87 553.58 102.25"/><polygon class="cls-3" points="22.3 269.59 58.85 269.59 231.85 137.04 369.26 242.31 387.39 228.54 231.85 110.35 22.3 269.59"/><polygon class="cls-3" points="875.31 110.35 719.78 228.54 737.9 242.31 875.31 137.04 1048.31 269.59 1084.87 269.59 875.31 110.35"/><polygon class="cls-3" points="356.56 142.77 380.71 160.04 550.61 36.47 720.51 160.04 744.67 142.77 550.61 0 356.56 142.77"/><path class="cls-9" d="M609.32,334.72c.56.94,1.07,1.83,1.54,2.64Z"/><path class="cls-6" d="M19.17,446.81V483H0V383H33.11q14.89,0,23.6,8.82t8.7,23.11q0,14.37-8.7,23.12t-23.6,8.75Zm0-15.18H33.11q6.47,0,9.83-4.67t3.36-11.88q0-7.35-3.36-12.12t-9.83-4.78H19.17Z"/><path class="cls-6" d="M93.79,442.9V483H74.62V383.07h29.64q14.76,0,23.22,7.77T136,412.47A23.79,23.79,0,0,1,122.08,435q7.74,2.61,11.15,8.65t3.4,15.11V466a43.79,43.79,0,0,0,1,8.8c.63,3.06,1.77,5.31,3.4,6.73V483H121.12c-1.58-1.46-2.59-3.86-3-7.18a77.21,77.21,0,0,1-.65-9.92v-7q0-7.62-3.12-11.81a10.54,10.54,0,0,0-9-4.19Zm0-15.11h10.34q6.18,0,9.41-3.75t3.23-10.61q0-7-3.19-11.12t-9.32-4.13H93.79Z"/><path class="cls-6" d="M218.66,447q0,17.66-9.86,27.54t-26.25,9.89q-16.4,0-26.18-9.89T146.58,447V419.13q0-17.58,9.76-27.57t26.14-10q16.4,0,26.28,10t9.9,27.57Zm-19.11-28.09q0-10.92-4.39-16.49t-12.68-5.56q-8.35,0-12.58,5.53t-4.21,16.52V447q0,11.13,4.25,16.69t12.61,5.56q8.37,0,12.68-5.56T199.55,447Z"/><path class="cls-6" d="M272,457.18h.41L291,383h25.09V483H297V420l-.41-.07L278.72,483H265.87l-17.75-62.57-.41.07V483h-19.1V383h24.95Z"/><path class="cls-6" d="M348.1,483H329V383H348.1Z"/><path class="cls-6" d="M405.1,457.05c0-4-1-7.13-3-9.45s-5.64-4.56-10.85-6.76q-15.23-5.43-22.91-12.3t-7.69-19.23q0-12.29,8.77-20t22.38-7.73q14.42,0,23.18,8.25t8.5,22.11l-.13.41H404.7q0-7.75-3.44-11.77t-9.82-4a10.52,10.52,0,0,0-8.57,3.67,13.85,13.85,0,0,0-3.06,9.17,11,11,0,0,0,3.47,8.38q3.47,3.3,11.9,7.21,14.34,4.81,21.72,12.16t7.38,19.78q0,12.84-8.64,20.19t-22.91,7.35q-14.09,0-24.07-7.93T359,452.38l.14-.41h18.7q0,9.4,3.77,13.53t11.12,4.12q6.18,0,9.28-3.44A13.13,13.13,0,0,0,405.1,457.05Z"/><path class="cls-6" d="M483.12,438.85H452.86v29H489.1V483H433.69V383H489v15.17H452.86v25.56h30.26Z"/><path class="cls-6" d="M498.24,483V383h30.53a32.42,32.42,0,0,1,25.63,11.71q10.14,11.7,10.13,30v16.55q0,18.4-10.13,30.05A32.51,32.51,0,0,1,528.77,483Zm19.17-84.83V467.9h11.36q7.41,0,12-7.42t4.55-19.16V424.63q0-11.61-4.55-19t-12-7.42Z"/><path class="cls-6" d="M837.28,475.51H874.2v15.11H818.11v-100h19.17Z"/><path class="cls-6" d="M927.88,469H903.13l-5.58,21.64h-20l28.08-100H925.5l28.08,100H933.52Zm-20.81-15.24h16.86L915.71,422h-.41Z"/><path class="cls-6" d="M1028.67,490.62H1009.5l-31.42-63.81-.41.07v63.74H958.5v-100h19.17l31.42,63.88.41-.07V390.61h19.17Z"/><path class="cls-6" d="M1040.87,490.62v-100h30.53A32.43,32.43,0,0,1,1097,402.33q10.13,11.7,10.13,30v16.56q0,18.4-10.13,30.05a32.51,32.51,0,0,1-25.63,11.64ZM1060,405.79v69.72h11.36q7.41,0,12-7.42t4.56-19.16V432.24q0-11.61-4.56-19t-12-7.42Z"/><path class="cls-9" d="M728.63,425.82c-10.52,5.15-20.44,6.49-22.15,3s36.39-22.14,38.1-18.64S739.15,420.67,728.63,425.82Zm-12.31-73.4c-1.71-3.49-11.62-2.15-22.15,3s-17.66,12.16-15.95,15.65S718,355.91,716.32,352.42Z"/><polygon class="cls-9" points="665.75 424.23 695 408.05 687.9 393.54 657.06 406.76 665.75 424.23"/><path class="cls-9" d="M693.59,408.47l-28,15.48-2.35,1.29-59.77,33.07c-4,2.21-9.81-1-13-7.14l-.1-.22a2.14,2.14,0,0,1-.1-.22h0c-2.94-6-2.22-12.54,1.67-14.7l.5-.25,94.64-40.56,3.08,6.31Z"/><polygon class="cls-10" points="665.75 424.22 666.29 425.3 663.88 426.5 663.26 425.24 665.61 423.95 693.59 408.47 690.19 401.53 691.49 400.89 695 408.05 665.75 424.22"/><path class="cls-10" d="M706.48,428.81c1.71,3.5,11.63,2.16,22.15-3s17.66-12.15,16-15.65S704.77,425.32,706.48,428.81Z"/><path class="cls-9" d="M742.74,406.45a25.49,25.49,0,0,0-6.16,1.53,134.23,134.23,0,0,0-13.79,5.92c-10.75,5.26-15.85,8.76-18.14,11.21,0,0-1.2-3.05-2.86-7.13-.1-.25-.21-.5-.31-.76-.81-2-1.7-4.17-2.6-6.36-.14-.32-.27-.63-.4-.95l-.71-1.71c-.15-.34-.3-.69-.44-1l-.23-.54-.42-1s0-.08,0-.11c-.13-.3-.25-.59-.38-.88l-.61-1.41c-.06-.15-.13-.3-.2-.45a1.42,1.42,0,0,0-.08-.18c-.23-.53-.45-1-.67-1.5l-.18-.4-.49-1.08-.43-.89c-3-6.18-13.57-23.95-13.57-23.95,3.35-.3,9.24-2.19,20-7.45s15.81-8.72,18.11-11.19c0,0,7.57,19.22,10.58,25.4.12.25.25.52.4.8.44.88,1,1.92,1.6,3.05l.46.83c1.19,2.18,2.58,4.65,4,7.11.18.34.38.67.57,1,.32.58.66,1.15,1,1.72l.56,1c.26.46.53.92.79,1.36,0,0,0,.05,0,.06.17.3.34.6.52.9,0,0,0,0,0,0l.51.88h0c.16.28.31.56.48.83l.51.87.87,1.5.12.2c.12.22.24.42.36.62Z"/><path class="cls-10" d="M694,399.64l.49,1.08c-.17-.38-.34-.74-.5-1.08Z"/><path class="cls-10" d="M694.7,401.12c.22.47.44,1,.67,1.5C695.14,402.09,694.92,401.59,694.7,401.12Z"/><rect class="cls-6" x="658.86" y="405.13" width="2.68" height="21.92" transform="translate(-116.21 337.46) rotate(-26.44)"/><path class="cls-9" d="M747.21,448.33l1.68,0Z"/><path class="cls-9" d="M771.48,455.39c.45.46.87.94,1.27,1.44C772.35,456.33,771.93,455.85,771.48,455.39Z"/><path class="cls-9" d="M773.33,457.58a17.06,17.06,0,0,1,1,1.58C774.05,458.63,773.7,458.09,773.33,457.58Z"/><path class="cls-9" d="M776.73,466.25h0a17.77,17.77,0,0,0-2.36-7.09A17.63,17.63,0,0,1,776.73,466.25Z"/><path class="cls-9" d="M793,478v12.61H653V478h15.75V468c0-10.95,10.4-19.83,23.21-19.83,0,0,22.73.49,30.31.49H723l5.06,0,1.48,0h.92l.89,0,9.52-.15,4.86-.09h1.46l1.68,0h.69l4-.08,1.13,0,.48,0c.26,0,.51,0,.77.06s.68.06,1,.11.64.08,1,.13H758l1.05.2.71.16c.22.05.44.1.66.17l.1,0c.31.08.61.17.91.27a1,1,0,0,1,.25.08c.27.08.54.17.8.27l.25.08.62.24.63.26.23.1.7.32.23.12c.26.12.51.25.77.39l0,0,.8.45c.4.24.8.49,1.19.77q.27.16.54.36c.26.2.53.39.79.6s.52.42.78.63l.7.63h0c.23.23.47.45.69.68.45.46.87.94,1.27,1.44l.1.12.48.63c.37.51.72,1.05,1,1.58a17.77,17.77,0,0,1,2.36,7.09h0a17.53,17.53,0,0,1,.09,1.78v10Z"/><polygon class="cls-6" points="793.03 475.49 793.03 478.01 783.41 478.01 783.41 479.33 662.63 479.33 662.63 478.01 653.01 478.01 653.01 475.49 662.63 475.49 662.63 466.25 783.41 466.25 783.41 475.49 793.03 475.49"/><path class="cls-4" d="M522.23,288.91h29v29h-29Zm0-33.69h29v29h-29Zm62.7,33.69h-29v29h29Zm0-33.69h-29v29h29Z"/></g></g></g></svg>